<svg id="Layer_1" data-name="Layer 1" xmlns="http://www.w3.org/2000/svg" viewBox="0 0 384 384"><path d="M230.87,317.46c-28.81,0-57.62.06-86.44-.08-3.69,0-5.64.84-7.16,4.6a44.13,44.13,0,0,1-84.43-10.4,44.45,44.45,0,0,1,43.32-51.14c17.34-.26,34.57,10.83,40.94,27,1.66,4.19,3.82,5.15,8,5.14q86.25-.19,172.51-.1c3,0,6,.13,8.68,1.73a12.27,12.27,0,0,1-3.38,22.7,27.85,27.85,0,0,1-6.69.56ZM77.2,304.69a19.47,19.47,0,0,0,19.14,19.84c10.6.25,19.52-8.59,19.58-19.4a19.36,19.36,0,1,0-38.72-.44Z"/><path d="M279.11,93.77c-13.47,0-26.94,0-40.41,0-2.6,0-3.95.79-5,3.32-7.35,18-21,27.7-40.19,28.57a42.89,42.89,0,0,1-41.69-26.79c-1.7-4.13-3.79-5.18-8-5.15-25.81.18-51.63.08-77.44.11-3.06,0-6-.35-8.55-2.15-4.27-3-6.36-7.11-5.46-12.25a11.83,11.83,0,0,1,9.38-10,25.28,25.28,0,0,1,6.31-.58c25.57,0,51.13,0,76.7.07,3.36,0,5.21-.74,6.65-4.22,7.38-17.82,23.05-27.7,42.74-27.45,17.15.22,32.72,11.29,39.45,28.42,1.14,2.9,2.85,3.22,5.41,3.22q38.54-.07,77.07,0a34.56,34.56,0,0,1,5.58.34c6.73,1.16,11.29,6.8,10.77,13.13a12.48,12.48,0,0,1-12.6,11.45c-13.59.11-27.19,0-40.78,0ZM211.73,81.22a19.36,19.36,0,1,0-38.71.22,19.36,19.36,0,1,0,38.71-.22Z"/><path d="M153.46,180.88c29.19,0,58.38,0,87.56.07,3.2,0,4.79-.82,6-4,7-18.29,26.1-30.09,45-28.08,20.64,2.19,36.67,17.16,39.87,37.24A44.23,44.23,0,0,1,247,209.18c-1.15-3-2.62-3.88-5.69-3.88q-87.19.12-174.39,0c-2.1,0-4.22.17-6.29-.57a12.54,12.54,0,0,1-8.28-13.22A12.16,12.16,0,0,1,64.4,180.92c21.08-.07,42.16,0,63.24,0ZM307.54,193c0-11-8.37-19.25-19.5-19.21s-19.25,8.37-19.21,19.5,8.37,19.26,19.49,19.22S307.59,204.05,307.54,193Z"/></svg>